<svg width="32" height="33" viewBox="0 0 32 33" fill="none" xmlns="http://www.w3.org/2000/svg">
<path d="M4 4.03326H28V28.0333H4V4.03326ZM6 6.03326V26.0333H26V6.03326H6ZM7 7.03326H25V25.0333H7V7.03326ZM17.4161 17.8051L14.5 13.0333L9 22.0333H20H23L19 15.0333L17.4161 17.8051ZM21 13.0333C22.1046 13.0333 23 12.1378 23 11.0333C23 9.92869 22.1046 9.03326 21 9.03326C19.8954 9.03326 19 9.92869 19 11.0333C19 12.1378 19.8954 13.0333 21 13.0333Z" fill="white"/>
<circle cx="24" cy="24.0333" r="8" fill="white"/>
<path fill-rule="evenodd" clip-rule="evenodd" d="M25 20.0333H23V23.0333H20V25.0333H23V28.0333H25V25.0333H28V23.0333H25V20.0333Z" fill="#5D6359"/>
</svg>
