<svg width="86" height="88" viewBox="0 0 86 88" fill="none" xmlns="http://www.w3.org/2000/svg">
<g style="mix-blend-mode:difference">
<circle cx="43" cy="44" r="38.9688" fill="white" fill-opacity="0.8" stroke="white"/>
<path d="M21.4629 34.6748C20.8932 34.6748 20.4521 34.8896 20.1396 35.3193C19.8271 35.7458 19.6709 36.3415 19.6709 37.1064C19.6709 38.6982 20.2682 39.4941 21.4629 39.4941C21.9642 39.4941 22.5713 39.3688 23.2842 39.1182V40.3877C22.6982 40.6318 22.0439 40.7539 21.3213 40.7539C20.2829 40.7539 19.4886 40.4398 18.9385 39.8115C18.3883 39.18 18.1133 38.2751 18.1133 37.0967C18.1133 36.3545 18.2484 35.7051 18.5186 35.1484C18.7887 34.5885 19.1761 34.1605 19.6807 33.8643C20.1885 33.5648 20.7826 33.415 21.4629 33.415C22.1562 33.415 22.8529 33.5827 23.5527 33.918L23.0645 35.1484C22.7975 35.0215 22.529 34.9108 22.2588 34.8164C21.9886 34.722 21.7233 34.6748 21.4629 34.6748Z" fill="#565C68"/>
<path d="M27.8301 40.6562L26.1113 35.0557H26.0674C26.1292 36.195 26.1602 36.9551 26.1602 37.3359V40.6562H24.8076V33.5176H26.8682L28.5576 38.9766H28.5869L30.3789 33.5176H32.4395V40.6562H31.0283V37.2773C31.0283 37.1178 31.0299 36.9339 31.0332 36.7256C31.0397 36.5173 31.0625 35.9639 31.1016 35.0654H31.0576L29.2168 40.6562H27.8301Z" fill="#565C68"/>
<path d="M40.7207 37.0771C40.7207 38.2588 40.4277 39.167 39.8418 39.8018C39.2559 40.4365 38.416 40.7539 37.3223 40.7539C36.2285 40.7539 35.3887 40.4365 34.8027 39.8018C34.2168 39.167 33.9238 38.2555 33.9238 37.0674C33.9238 35.8792 34.2168 34.9727 34.8027 34.3477C35.3919 33.7194 36.235 33.4053 37.332 33.4053C38.429 33.4053 39.2673 33.721 39.8467 34.3525C40.4294 34.984 40.7207 35.8923 40.7207 37.0771ZM35.5107 37.0771C35.5107 37.8747 35.6621 38.4753 35.9648 38.8789C36.2676 39.2826 36.7201 39.4844 37.3223 39.4844C38.5299 39.4844 39.1338 38.682 39.1338 37.0771C39.1338 35.4691 38.5332 34.665 37.332 34.665C36.7298 34.665 36.2757 34.8685 35.9697 35.2754C35.6637 35.679 35.5107 36.2796 35.5107 37.0771Z" fill="#565C68"/>
<path d="M44.9541 40.6562H43.4404V34.7773H41.502V33.5176H46.8926V34.7773H44.9541V40.6562Z" fill="#565C68"/>
<path d="M49.5049 36.877H50.0029C50.4684 36.877 50.8167 36.7858 51.0479 36.6035C51.279 36.418 51.3945 36.1494 51.3945 35.7979C51.3945 35.443 51.2969 35.181 51.1016 35.0117C50.9095 34.8424 50.6068 34.7578 50.1934 34.7578H49.5049V36.877ZM52.9229 35.7441C52.9229 36.5124 52.682 37.0999 52.2002 37.5068C51.7217 37.9137 51.0397 38.1172 50.1543 38.1172H49.5049V40.6562H47.9912V33.5176H50.2715C51.1374 33.5176 51.7949 33.7048 52.2441 34.0791C52.6966 34.4502 52.9229 35.0052 52.9229 35.7441Z" fill="#565C68"/>
<path d="M58.3818 40.6562H54.2705V33.5176H58.3818V34.7578H55.7842V36.3252H58.2012V37.5654H55.7842V39.4062H58.3818V40.6562Z" fill="#565C68"/>
<path d="M62.6299 40.6562H61.1162V34.7773H59.1777V33.5176H64.5684V34.7773H62.6299V40.6562Z" fill="#565C68"/>
<path d="M70.6963 38.4248C70.6963 39.9124 69.7132 40.6562 67.7471 40.6562H65.667V33.5176H67.1807V36.2568H67.7764C68.7074 36.2568 69.4268 36.4456 69.9346 36.8232C70.4424 37.2008 70.6963 37.7347 70.6963 38.4248ZM67.1807 39.416H67.6885C68.1995 39.416 68.5739 39.3346 68.8115 39.1719C69.0492 39.0059 69.168 38.7568 69.168 38.4248C69.168 38.096 69.0475 37.86 68.8066 37.7168C68.5658 37.5703 68.1523 37.4971 67.5664 37.4971H67.1807V39.416Z" fill="#565C68"/>
<path d="M34.168 50.4883H34.2363C34.7604 50.4883 35.1706 50.3516 35.4668 50.0781C35.7663 49.8014 35.916 49.4238 35.916 48.9453C35.916 48.5026 35.7777 48.1478 35.501 47.8809C35.2243 47.6107 34.8467 47.4756 34.3682 47.4756H34.168V50.4883ZM32.8057 52.7539V51.6553H32.6982C32.0928 51.6553 31.5622 51.5495 31.1064 51.3379C30.6507 51.123 30.291 50.8024 30.0273 50.376C29.7669 49.9495 29.6367 49.4759 29.6367 48.9551C29.6367 48.4505 29.7523 47.9964 29.9834 47.5928C30.2178 47.1859 30.5547 46.8685 30.9941 46.6406C31.4336 46.4095 31.9512 46.2939 32.5469 46.2939H32.8057V45.415H34.168V46.2939H34.4268C35.0192 46.2939 35.5352 46.4095 35.9746 46.6406C36.4141 46.8685 36.751 47.1859 36.9854 47.5928C37.2197 47.9964 37.3369 48.4505 37.3369 48.9551C37.3369 49.4759 37.2051 49.9495 36.9414 50.376C36.681 50.8024 36.3229 51.123 35.8672 51.3379C35.4115 51.5495 34.8809 51.6553 34.2754 51.6553H34.168V52.7539H32.8057ZM32.8057 47.4756H32.6055C32.127 47.4756 31.7493 47.609 31.4727 47.876C31.196 48.1429 31.0576 48.4993 31.0576 48.9453C31.0576 49.4141 31.2041 49.7884 31.4971 50.0684C31.79 50.3483 32.2035 50.4883 32.7373 50.4883H32.8057V47.4756Z" fill="#565C68"/>
<path d="M45.1689 49.0771C45.1689 50.2588 44.876 51.167 44.29 51.8018C43.7041 52.4365 42.8643 52.7539 41.7705 52.7539C40.6768 52.7539 39.8369 52.4365 39.251 51.8018C38.665 51.167 38.3721 50.2555 38.3721 49.0674C38.3721 47.8792 38.665 46.9727 39.251 46.3477C39.8402 45.7194 40.6833 45.4053 41.7803 45.4053C42.8773 45.4053 43.7155 45.721 44.2949 46.3525C44.8776 46.984 45.1689 47.8923 45.1689 49.0771ZM39.959 49.0771C39.959 49.8747 40.1104 50.4753 40.4131 50.8789C40.7158 51.2826 41.1683 51.4844 41.7705 51.4844C42.9782 51.4844 43.582 50.682 43.582 49.0771C43.582 47.4691 42.9814 46.665 41.7803 46.665C41.1781 46.665 40.724 46.8685 40.418 47.2754C40.112 47.679 39.959 48.2796 39.959 49.0771Z" fill="#565C68"/>
<path d="M49.4023 52.6562H47.8887V46.7773H45.9502V45.5176H51.3408V46.7773H49.4023V52.6562Z" fill="#565C68"/>
<path d="M58.9189 49.0771C58.9189 50.2588 58.626 51.167 58.04 51.8018C57.4541 52.4365 56.6143 52.7539 55.5205 52.7539C54.4268 52.7539 53.5869 52.4365 53.001 51.8018C52.415 51.167 52.1221 50.2555 52.1221 49.0674C52.1221 47.8792 52.415 46.9727 53.001 46.3477C53.5902 45.7194 54.4333 45.4053 55.5303 45.4053C56.6273 45.4053 57.4655 45.721 58.0449 46.3525C58.6276 46.984 58.9189 47.8923 58.9189 49.0771ZM53.709 49.0771C53.709 49.8747 53.8604 50.4753 54.1631 50.8789C54.4658 51.2826 54.9183 51.4844 55.5205 51.4844C56.7282 51.4844 57.332 50.682 57.332 49.0771C57.332 47.4691 56.7314 46.665 55.5303 46.665C54.9281 46.665 54.474 46.8685 54.168 47.2754C53.862 47.679 53.709 48.2796 53.709 49.0771Z" fill="#565C68"/>
<rect y="42.6041" width="6.71875" height="1" fill="white"/>
<rect x="79.2812" y="42.6041" width="6.71875" height="1" fill="white"/>
<path fill-rule="evenodd" clip-rule="evenodd" d="M44.396 1V9.0625H43.396V1H44.396Z" fill="white"/>
<path fill-rule="evenodd" clip-rule="evenodd" d="M44.396 80.2812V87H43.396V80.2812H44.396Z" fill="white"/>
</g>
</svg>
