<svg width="86" height="88" viewBox="0 0 86 88" fill="none" xmlns="http://www.w3.org/2000/svg">
<g style="mix-blend-mode:difference">
<circle cx="43" cy="44" r="38.9688" fill="white" fill-opacity="0.8" stroke="white"/>
<path d="M29.2314 40.6562H27.7178V37.8975C27.2165 38.0667 26.7982 38.1823 26.4629 38.2441C26.1309 38.306 25.8135 38.3369 25.5107 38.3369C24.8304 38.3369 24.3047 38.1742 23.9336 37.8486C23.5658 37.5199 23.3818 37.0592 23.3818 36.4668V33.5176H24.8906V36.0371C24.8906 36.3822 24.9704 36.6426 25.1299 36.8184C25.2894 36.9909 25.5596 37.0771 25.9404 37.0771C26.2074 37.0771 26.4727 37.0511 26.7363 36.999C27.0033 36.9437 27.3304 36.8493 27.7178 36.7158V33.5176H29.2314V40.6562ZM31.0332 33.5176H32.3955V36.9648L32.376 37.8877L32.3271 38.9375H32.3564L35.6523 33.5176H37.4639V40.6562H36.1162V37.2285C36.1162 36.7695 36.1455 36.0892 36.2041 35.1875H36.165L32.8545 40.6562H31.0332V33.5176ZM42.0195 40.6562H40.5059V34.7773H38.5674V33.5176H43.958V34.7773H42.0195V40.6562ZM49.4268 40.6562L48.9092 38.957H46.3066L45.7891 40.6562H44.1582L46.6777 33.4883H48.5283L51.0576 40.6562H49.4268ZM48.5479 37.6875C48.0693 36.1478 47.7992 35.277 47.7373 35.0752C47.6787 34.8734 47.6364 34.7139 47.6104 34.5967C47.5029 35.0133 47.1953 36.0436 46.6875 37.6875H48.5479ZM54.7148 40.6562H53.2012V34.7773H51.2627V33.5176H56.6533V34.7773H54.7148V40.6562ZM62.7812 38.4248C62.7812 39.9124 61.7982 40.6562 59.832 40.6562H57.752V33.5176H59.2656V36.2568H59.8613C60.7923 36.2568 61.5117 36.4456 62.0195 36.8232C62.5273 37.2008 62.7812 37.7347 62.7812 38.4248ZM59.2656 39.416H59.7734C60.2845 39.416 60.6589 39.3346 60.8965 39.1719C61.1341 39.0059 61.2529 38.7568 61.2529 38.4248C61.2529 38.096 61.1325 37.86 60.8916 37.7168C60.6507 37.5703 60.2373 37.4971 59.6514 37.4971H59.2656V39.416ZM27.2979 46.6748C26.7282 46.6748 26.2871 46.8896 25.9746 47.3193C25.6621 47.7458 25.5059 48.3415 25.5059 49.1064C25.5059 50.6982 26.1032 51.4941 27.2979 51.4941C27.7992 51.4941 28.4062 51.3688 29.1191 51.1182V52.3877C28.5332 52.6318 27.8789 52.7539 27.1562 52.7539C26.1178 52.7539 25.3236 52.4398 24.7734 51.8115C24.2233 51.18 23.9482 50.2751 23.9482 49.0967C23.9482 48.3545 24.0833 47.7051 24.3535 47.1484C24.6237 46.5885 25.0111 46.1605 25.5156 45.8643C26.0234 45.5648 26.6175 45.415 27.2979 45.415C27.9912 45.415 28.6878 45.5827 29.3877 45.918L28.8994 47.1484C28.6325 47.0215 28.3639 46.9108 28.0938 46.8164C27.8236 46.722 27.5583 46.6748 27.2979 46.6748ZM33.3965 52.6562H31.8828V46.7773H29.9443V45.5176H35.335V46.7773H33.3965V52.6562ZM40.8037 52.6562L40.2861 50.957H37.6836L37.166 52.6562H35.5352L38.0547 45.4883H39.9053L42.4346 52.6562H40.8037ZM39.9248 49.6875C39.4463 48.1478 39.1761 47.277 39.1143 47.0752C39.0557 46.8734 39.0133 46.7139 38.9873 46.5967C38.8799 47.0133 38.5723 48.0436 38.0645 49.6875H39.9248ZM46.0918 52.6562H44.5781V46.7773H42.6396V45.5176H48.0303V46.7773H46.0918V52.6562ZM54.1582 50.4248C54.1582 51.9124 53.1751 52.6562 51.209 52.6562H49.1289V45.5176H50.6426V48.2568H51.2383C52.1693 48.2568 52.8887 48.4456 53.3965 48.8232C53.9043 49.2008 54.1582 49.7347 54.1582 50.4248ZM50.6426 51.416H51.1504C51.6615 51.416 52.0358 51.3346 52.2734 51.1719C52.5111 51.0059 52.6299 50.7568 52.6299 50.4248C52.6299 50.096 52.5094 49.86 52.2686 49.7168C52.0277 49.5703 51.6143 49.4971 51.0283 49.4971H50.6426V51.416ZM64.7393 49.0771C64.7393 50.249 64.4642 51.1556 63.9141 51.7969C63.3672 52.4349 62.5811 52.7539 61.5557 52.7539C60.6149 52.7539 59.8743 52.4837 59.334 51.9434C58.7936 51.3997 58.4811 50.6104 58.3965 49.5752H57.0293V52.6562H55.5156V45.5176H57.0293V48.3154H58.4258C58.5365 47.3747 58.8587 46.6553 59.3926 46.1572C59.9297 45.6559 60.654 45.4053 61.5654 45.4053C62.5941 45.4053 63.3802 45.7243 63.9238 46.3623C64.4674 47.0003 64.7393 47.9053 64.7393 49.0771ZM59.9492 49.0771C59.9492 49.8714 60.0859 50.472 60.3594 50.8789C60.6328 51.2826 61.0316 51.4844 61.5557 51.4844C62.6364 51.4844 63.1768 50.682 63.1768 49.0771C63.1768 48.2829 63.0417 47.6823 62.7715 47.2754C62.5046 46.8685 62.1058 46.665 61.5752 46.665C61.0413 46.665 60.6361 46.8685 60.3594 47.2754C60.0859 47.6823 59.9492 48.2829 59.9492 49.0771Z" fill="#565C68"/>
<rect y="42.6042" width="6.71875" height="1" fill="white"/>
<rect x="79.2812" y="42.6042" width="6.71875" height="1" fill="white"/>
<path fill-rule="evenodd" clip-rule="evenodd" d="M44.3955 1V9.0625H43.3955V1H44.3955Z" fill="white"/>
<path fill-rule="evenodd" clip-rule="evenodd" d="M44.3955 80.2812V87H43.3955V80.2812H44.3955Z" fill="white"/>
</g>
</svg>
