<svg width="41" height="45" viewBox="0 0 41 45" fill="none" xmlns="http://www.w3.org/2000/svg">
<path d="M14.3016 1.25182C23.3016 -0.748185 29.8016 3.75182 31.8016 6.25182L32.3016 8.25182L30.3016 7.75182C28.3016 6.25182 26.3016 5.05182 21.8016 4.75182C17.3016 4.45182 12.3016 7.25182 9.80164 11.2518L3.7092 17.3443C3.00348 18.05 1.81291 17.4 2.02492 16.4247L3.80164 8.25182C5.13497 5.91849 8.84459 2.4645 14.3016 1.25182Z" fill="white"/>
<path d="M2.80176 2.00195C2.80176 2.80195 2.96842 4.83529 3.30176 6.00195C3.63509 7.16862 4.30176 8.25195 4.30176 8.25195L8.80176 4.25195C8.46842 4.41862 7.57638 4.97733 6.30176 4.75195C5.31703 4.57784 4.30176 3.00195 3.80176 2.00195C3.30176 1.00195 2.80176 1.00195 2.80176 2.00195Z" fill="#565C68"/>
<path fill-rule="evenodd" clip-rule="evenodd" d="M3.34758 1.63606C3.34759 1.63607 3.3474 1.63646 3.347 1.63718L3.34758 1.63606ZM3.30298 2.12645C3.31856 2.97233 3.48249 4.81449 3.78252 5.86459C3.93746 6.4069 4.17296 6.93883 4.37397 7.34085C4.39523 7.38336 4.41603 7.42428 4.43622 7.46345L6.86523 5.30433C6.65937 5.30278 6.44214 5.28453 6.2147 5.24432C5.85958 5.18153 5.53687 5.00024 5.25901 4.78408C4.97821 4.56564 4.71667 4.29083 4.48195 4.00198C4.01289 3.42476 3.61537 2.74721 3.35454 2.22556C3.33703 2.19053 3.31982 2.15751 3.30298 2.12645ZM4.30176 8.25195L3.87593 8.514L4.18837 9.02172L9.13394 4.62566L8.57815 3.80474C8.54443 3.8216 8.50734 3.84098 8.46693 3.8621C8.0759 4.06643 7.37316 4.43364 6.38882 4.25959C6.25157 4.23532 6.0781 4.15433 5.87302 3.99479C5.67087 3.83753 5.46271 3.62323 5.25802 3.37134C4.84826 2.86709 4.48815 2.2567 4.24897 1.77835C4.11147 1.50335 3.96111 1.27004 3.79934 1.09748C3.65418 0.942646 3.42015 0.751953 3.11426 0.751953C2.74314 0.751953 2.52669 1.01716 2.42962 1.23904C2.33502 1.45527 2.30176 1.7221 2.30176 2.00195C2.30176 2.82679 2.47008 4.9111 2.821 6.13931C2.99938 6.76367 3.26389 7.35674 3.47954 7.78806C3.5881 8.00518 3.68595 8.1846 3.7571 8.31048C3.79271 8.37348 3.82173 8.42324 3.84217 8.45779L3.86619 8.49799L3.87294 8.50911L3.87491 8.51235L3.87593 8.514C3.87597 8.51406 3.87593 8.514 4.30176 8.25195Z" fill="white"/>
<path d="M15.0977 13.2575C14.2977 13.2636 12.2631 13.1126 11.094 12.7882C9.92477 12.4638 8.83635 11.8055 8.83635 11.8055L12.8017 7.27491C12.6376 7.60952 12.0857 8.50582 12.3209 9.77868C12.5026 10.762 14.0862 11.7652 15.09 12.2575C16.0938 12.7498 16.0976 13.2498 15.0977 13.2575Z" fill="#565C68"/>
<path fill-rule="evenodd" clip-rule="evenodd" d="M15.4593 12.7088C15.4593 12.7088 15.4589 12.709 15.4582 12.7094L15.4593 12.7088ZM14.9693 12.7572C14.1233 12.7481 12.28 12.5983 11.2276 12.3063C10.6841 12.1556 10.1504 11.9241 9.74683 11.7262C9.70416 11.7053 9.66308 11.6848 9.62375 11.6649L11.7642 9.21941C11.7673 9.42525 11.7872 9.64234 11.8292 9.86946C11.8947 10.2241 12.0784 10.5454 12.2967 10.8216C12.5173 11.1007 12.7941 11.3601 13.0848 11.5926C13.6656 12.0572 14.3462 12.4495 14.8698 12.7064C14.905 12.7236 14.9381 12.7406 14.9693 12.7572ZM8.83631 11.8054L8.57754 12.2333L8.06744 11.9247L12.4254 6.94556L13.2506 7.49503C13.234 7.52888 13.2149 7.56611 13.1941 7.60669C12.9927 7.99927 12.6309 8.70481 12.8125 9.68779C12.8379 9.82484 12.9202 9.99768 13.0813 10.2015C13.2401 10.4025 13.456 10.609 13.7094 10.8117C14.2168 11.2176 14.83 11.573 15.3101 11.8085C15.5862 11.9439 15.8206 12.0925 15.9944 12.2529C16.1504 12.3969 16.3429 12.6294 16.3452 12.9353C16.3481 13.3064 16.0845 13.5249 15.8634 13.6237C15.6479 13.7199 15.3813 13.7552 15.1015 13.7574C14.2767 13.7637 12.1911 13.6114 10.9603 13.2699C10.3345 13.0963 9.73946 12.8364 9.3065 12.6241C9.08856 12.5172 8.90839 12.4207 8.78196 12.3505C8.71869 12.3154 8.66871 12.2868 8.63401 12.2666L8.59362 12.2429L8.58245 12.2362L8.5792 12.2343L8.57754 12.2333C8.57747 12.2332 8.57754 12.2333 8.83631 11.8054Z" fill="white"/>
<path d="M39.4241 17.0297C38.5743 12.1408 35.7063 7.02973 28.8018 4.25195L31.9885 7.58529C29.864 5.91862 28.3018 5.75195 28.3018 5.75195C28.3018 5.75195 31.4573 8.14084 31.9885 14.252C32.1655 13.326 32.6502 10.7237 33.5818 10.9186C36.2374 11.4742 37.8307 15.9186 39.4241 24.252C39.4241 23.8816 40.2739 21.9186 39.4241 17.0297Z" fill="#565C68"/>
<path fill-rule="evenodd" clip-rule="evenodd" d="M28.3878 3.97142C28.5198 3.77645 28.77 3.7 28.9884 3.78789C36.0769 6.63968 39.0419 11.9109 39.9167 16.9439C40.3485 19.4281 40.3513 21.1855 40.2407 22.3812C40.1853 22.979 40.1021 23.4317 40.0327 23.7584C40.0116 23.8576 39.9897 23.9546 39.9719 24.0332C39.9622 24.0759 39.9538 24.1132 39.9474 24.1424C39.9284 24.2296 39.9248 24.2583 39.9242 24.2582C39.924 24.2582 39.9241 24.2558 39.9241 24.2518C39.9241 24.5096 39.728 24.7252 39.4713 24.7495C39.2145 24.7739 38.9814 24.5989 38.933 24.3457C38.1371 20.183 37.3481 17.0323 36.44 14.8614C35.5227 12.6682 34.5509 11.6361 33.4873 11.4095C33.4871 11.4096 33.487 11.4097 33.4868 11.4098C33.4675 11.4199 33.4229 11.4519 33.3598 11.5333C33.2306 11.6999 33.0984 11.975 32.9741 12.33C32.7334 13.0175 32.5756 13.8433 32.4848 14.3183L32.4796 14.3457C32.4327 14.5908 32.2122 14.7639 31.9629 14.7511C31.7137 14.7384 31.512 14.5437 31.4904 14.295C31.232 11.3225 30.3377 9.27332 29.5226 7.97612C29.1143 7.32637 28.7244 6.86289 28.441 6.56528C28.2993 6.41646 28.1843 6.30915 28.1071 6.24082C28.0685 6.20665 28.0393 6.18225 28.021 6.16728L28.0018 6.15188L28 6.15041C27.9999 6.1503 27.9997 6.1502 27.9996 6.15009C27.9998 6.15025 28 6.15041 28.3018 5.75176C28.6036 5.35311 28.6038 5.35329 28.6041 5.35348L28.6046 5.3539L28.606 5.35491L28.6095 5.35761L28.6199 5.36572C28.6283 5.37233 28.6396 5.38137 28.6537 5.39288C28.6819 5.41589 28.721 5.44877 28.7697 5.49186C28.8671 5.57804 29.0028 5.70511 29.1653 5.87574C29.3971 6.1192 29.6834 6.45143 29.9908 6.88014C30.1143 7.05238 30.2412 7.24019 30.3693 7.44407C31.0128 8.46813 31.684 9.89286 32.112 11.7783C32.2342 11.4652 32.3841 11.1596 32.5697 10.9204C32.7949 10.63 33.1725 10.322 33.6842 10.429C35.2731 10.7614 36.4233 12.2297 37.3626 14.4755C38.0708 16.1688 38.6977 18.3972 39.301 21.1476C39.3109 20.1271 39.2247 18.8023 38.9315 17.1152C38.2149 12.9924 36.0287 8.71382 31.0589 5.88918L32.3499 7.23958C32.5312 7.42919 32.5351 7.72664 32.3589 7.92096C32.1827 8.11528 31.8863 8.14039 31.6799 7.97848C31.0533 7.48691 30.4808 7.13358 29.9908 6.88014M29.2964 5.4927L28.4404 4.59727C28.2777 4.42707 28.2558 4.1664 28.3878 3.97142M29.2964 5.4927C29.0506 5.40805 28.8467 5.35264 28.692 5.31677C28.5917 5.2935 28.5121 5.27846 28.4553 5.26898C28.4268 5.26424 28.4041 5.26089 28.3873 5.2586L28.3665 5.25592L28.3595 5.2551L28.3569 5.2548L28.3558 5.25468L28.3553 5.25463C28.3551 5.2546 28.3548 5.25458 28.3018 5.75176M27.9988 6.14948L27.9996 6.15009L27.9988 6.14948Z" fill="white"/>
<path d="M28.8018 0.751779C26.4018 0.351779 23.8018 1.25178 22.8018 1.75178C22.8018 1.75178 24.8018 2.25177 26.3018 2.75177C27.8018 3.25177 28.8018 4.25177 28.8018 4.25177C28.8018 3.25177 30.8018 3.25177 30.8018 3.25177C30.8018 3.25177 32.3018 3.25177 33.3018 4.25177C32.8018 3.25177 31.2018 1.15178 28.8018 0.751779Z" fill="#565C68"/>
<path fill-rule="evenodd" clip-rule="evenodd" d="M24.4091 1.66139C25.0472 1.83844 25.7994 2.05747 26.4599 2.27764C27.2707 2.54792 27.9404 2.95082 28.4049 3.28262C28.4835 3.33874 28.5565 3.39304 28.6236 3.44459C28.6828 3.38099 28.7473 3.32413 28.8143 3.27386C29.0787 3.07555 29.4025 2.96143 29.6805 2.89191C29.9656 2.82064 30.2444 2.78628 30.4477 2.76934C30.5505 2.76077 30.6366 2.75645 30.698 2.75426C30.7287 2.75316 30.7534 2.75259 30.771 2.7523L30.792 2.75203L30.7983 2.75199L30.8004 2.75199L30.8015 2.75199L30.8034 2.75199L30.8055 2.752L30.8114 2.75204L30.8297 2.75235C30.8447 2.75267 30.8653 2.75329 30.8909 2.75445C30.942 2.75678 31.0136 2.7613 31.1015 2.77009C31.2442 2.78436 31.4318 2.81006 31.6465 2.85656C31.5756 2.78566 31.5022 2.71511 31.4261 2.64532C30.7113 1.98907 29.7965 1.42468 28.7196 1.24519C27.2108 0.993722 25.5969 1.2931 24.4091 1.66139ZM30.8015 3.75199L30.808 3.75211C30.8155 3.75227 30.8281 3.75263 30.8455 3.75342C30.8803 3.755 30.9337 3.7583 31.002 3.76513C31.1392 3.77884 31.3334 3.80654 31.5555 3.86206C32.0054 3.97453 32.5352 4.19247 32.9482 4.60554C33.1216 4.77894 33.3952 4.80099 33.5941 4.65761C33.7931 4.51422 33.8587 4.24772 33.749 4.02838C33.4725 3.47535 32.911 2.65094 32.1024 1.90866C31.2922 1.16491 30.2071 0.479313 28.884 0.258798C26.3376 -0.165603 23.6255 0.781125 22.5782 1.30478C22.391 1.39836 22.2819 1.59857 22.3048 1.80655C22.3276 2.01454 22.4775 2.18632 22.6805 2.23707M22.6805 2.23707L22.7024 2.24257L22.7674 2.25904C22.8244 2.27351 22.9076 2.2948 23.0122 2.32193C23.2216 2.3762 23.5164 2.45378 23.8577 2.54687C24.5421 2.73353 25.4067 2.98069 26.1437 3.22633C26.8328 3.45605 27.4132 3.80315 27.8237 4.09635C28.0279 4.24226 28.1875 4.37293 28.2946 4.46577C28.3481 4.51213 28.3883 4.54889 28.4143 4.57318C28.4273 4.58532 28.4367 4.59432 28.4424 4.59984L28.4481 4.60545C28.4481 4.6054 28.4482 4.6055 28.4481 4.60545C28.4482 4.60548 28.4488 4.60612 28.4488 4.60615C28.5918 4.74866 28.8065 4.7912 28.9931 4.71392C29.18 4.63653 29.3018 4.45422 29.3018 4.25199C29.3018 4.19841 29.3178 4.14624 29.4143 4.07386C29.5249 3.99092 29.7011 3.91755 29.923 3.86206C30.1379 3.80833 30.3591 3.78019 30.5308 3.76588C30.6155 3.75882 30.6857 3.75534 30.7337 3.75362C30.7576 3.75276 30.7759 3.75235 30.7876 3.75216L30.8001 3.752L30.8015 3.75199" fill="white"/>
<path fill-rule="evenodd" clip-rule="evenodd" d="M19.4561 2.04848C13.6079 2.70171 8.76651 5.96603 7.26079 9.4503C7.15125 9.70378 6.85695 9.82047 6.60347 9.71093C6.34998 9.60138 6.23329 9.30709 6.34284 9.05361C8.03535 5.13711 13.2676 1.73351 19.3451 1.05466C22.3213 0.72223 25.0367 0.942761 28.8209 2.57808C29.0744 2.68763 29.1911 2.98192 29.0815 3.23541C28.972 3.48889 28.6777 3.60558 28.4242 3.49604C24.8076 1.93313 22.2681 1.7344 19.4561 2.04848Z" fill="#565C68"/>
<circle cx="4.30176" cy="10.752" r="0.5" fill="#565C68"/>
<circle cx="6.30176" cy="11.752" r="0.5" fill="#565C68"/>
<path d="M26.0001 43.0536C17.0001 45.0536 10.5001 40.5536 8.50012 38.0536L8.00012 36.0536L10.0001 36.5536C12.0001 38.0536 14.0001 39.2536 18.5001 39.5536C23.0001 39.8536 28.0001 37.0536 30.5001 33.0536L36.5926 26.9612C37.2983 26.2554 38.4889 26.9054 38.2768 27.8807L36.5001 36.0536C35.1668 38.3869 31.4572 41.8409 26.0001 43.0536Z" fill="white"/>
<path d="M37.5 42.3035C37.5 41.5035 37.3333 39.4701 37 38.3035C36.6667 37.1368 36 36.0535 36 36.0535L31.5 40.0535C31.8333 39.8868 32.7254 39.3281 34 39.5535C34.9847 39.7276 36 41.3035 36.5 42.3035C37 43.3035 37.5 43.3035 37.5 42.3035Z" fill="#565C68"/>
<path fill-rule="evenodd" clip-rule="evenodd" d="M36.9542 42.6694C36.9542 42.6694 36.9544 42.669 36.9548 42.6682L36.9542 42.6694ZM36.9988 42.179C36.9832 41.3331 36.8193 39.4909 36.5192 38.4408C36.3643 37.8985 36.1288 37.3666 35.9278 36.9646C35.9065 36.9221 35.8857 36.8811 35.8655 36.842L33.4365 39.0011C33.6424 39.0026 33.8596 39.0209 34.0871 39.0611C34.4422 39.1239 34.7649 39.3052 35.0428 39.5213C35.3235 39.7398 35.5851 40.0146 35.8198 40.3034C36.2889 40.8807 36.6864 41.5582 36.9472 42.0799C36.9647 42.1149 36.9819 42.1479 36.9988 42.179ZM36 36.0535L36.4258 35.7914L36.1134 35.2837L31.1678 39.6798L31.7236 40.5007C31.7573 40.4838 31.7944 40.4644 31.8348 40.4433C32.2259 40.239 32.9286 39.8718 33.9129 40.0458C34.0502 40.0701 34.2237 40.1511 34.4287 40.3106C34.6309 40.4679 34.839 40.6822 35.0437 40.9341C35.4535 41.4383 35.8136 42.0487 36.0528 42.5271C36.1903 42.8021 36.3406 43.0354 36.5024 43.2079C36.6476 43.3628 36.8816 43.5535 37.1875 43.5535C37.5586 43.5535 37.7751 43.2883 37.8721 43.0664C37.9667 42.8502 38 42.5833 38 42.3035C38 41.4786 37.8317 39.3943 37.4808 38.1661C37.3024 37.5417 37.0379 36.9487 36.8222 36.5174C36.7137 36.3002 36.6158 36.1208 36.5447 35.9949C36.509 35.9319 36.48 35.8822 36.4596 35.8476L36.4356 35.8074L36.4288 35.7963L36.4268 35.7931L36.4258 35.7914C36.4258 35.7914 36.4258 35.7914 36 36.0535Z" fill="white"/>
<path d="M25.2041 31.048C26.0041 31.0418 28.0386 31.1929 29.2078 31.5172C30.377 31.8416 31.4654 32.4999 31.4654 32.4999L27.5001 37.0305C27.6642 36.6959 28.216 35.7996 27.9809 34.5267C27.7992 33.5434 26.2156 32.5402 25.2118 32.0479C24.2079 31.5556 24.2041 31.0556 25.2041 31.048Z" fill="#565C68"/>
<path fill-rule="evenodd" clip-rule="evenodd" d="M24.8424 31.5966C24.8424 31.5966 24.8428 31.5964 24.8435 31.596L24.8424 31.5966ZM25.3325 31.5483C26.1784 31.5573 28.0218 31.7071 29.0742 31.9991C29.6177 32.1499 30.1514 32.3813 30.5549 32.5792C30.5976 32.6001 30.6387 32.6206 30.678 32.6405L28.5376 35.086C28.5345 34.8802 28.5145 34.6631 28.4726 34.436C28.4071 34.0813 28.2233 33.76 28.005 33.4838C27.7844 33.2047 27.5076 32.9453 27.217 32.7128C26.6362 32.2482 25.9556 31.8559 25.432 31.5991C25.3968 31.5818 25.3637 31.5649 25.3325 31.5483ZM31.4654 32.5L31.7242 32.0722L32.2343 32.3807L27.8764 37.3599L27.0512 36.8104C27.0678 36.7765 27.0869 36.7393 27.1077 36.6987C27.309 36.3061 27.6708 35.6006 27.4892 34.6176C27.4639 34.4806 27.3816 34.3077 27.2205 34.1039C27.0617 33.9029 26.8458 33.6964 26.5923 33.4937C26.0849 33.0878 25.4718 32.7324 24.9916 32.4969C24.7156 32.3615 24.4811 32.2129 24.3073 32.0525C24.1514 31.9085 23.9589 31.676 23.9566 31.3701C23.9537 30.999 24.2172 30.7805 24.4384 30.6817C24.6539 30.5855 24.9204 30.5502 25.2003 30.548C26.0251 30.5417 28.1106 30.694 29.3415 31.0355C29.9672 31.2091 30.5623 31.469 30.9953 31.6814C31.2132 31.7882 31.3934 31.8847 31.5198 31.9549C31.5831 31.99 31.633 32.0187 31.6677 32.0388L31.7081 32.0625L31.7193 32.0692L31.7226 32.0712L31.7242 32.0722C31.7243 32.0722 31.7242 32.0722 31.4654 32.5Z" fill="white"/>
<path d="M0.877683 27.2757C1.72747 32.1646 4.59549 37.2757 11.5 40.0535L8.31331 36.7201C10.4378 38.3868 12 38.5535 12 38.5535C12 38.5535 8.84443 36.1646 8.31331 30.0535C8.13627 30.9794 7.6516 33.5817 6.71996 33.3868C4.06438 32.8312 2.47103 28.3868 0.877683 20.0535C0.877683 20.4238 0.0278984 22.3868 0.877683 27.2757Z" fill="#565C68"/>
<path fill-rule="evenodd" clip-rule="evenodd" d="M11.914 40.334C11.782 40.529 11.5318 40.6054 11.3133 40.5175C4.22487 37.6657 1.25988 32.3946 0.385037 27.3615C-0.0467706 24.8773 -0.0495113 23.1199 0.0611074 21.9243C0.116422 21.3264 0.199651 20.8737 0.269066 20.547C0.290141 20.4478 0.312081 20.3508 0.32985 20.2722C0.339517 20.2295 0.347951 20.1922 0.354339 20.163C0.373391 20.0759 0.37691 20.0472 0.377532 20.0472C0.37771 20.0472 0.377651 20.0496 0.377651 20.0537C0.377651 19.7958 0.573768 19.5802 0.830491 19.5559C1.08721 19.5316 1.32033 19.7065 1.36876 19.9598C2.16466 24.1224 2.95371 27.2731 3.86173 29.4441C4.77905 31.6373 5.75082 32.6693 6.81444 32.8959C6.81461 32.8958 6.81479 32.8957 6.81497 32.8956C6.83421 32.8855 6.87883 32.8535 6.94196 32.7721C7.07121 32.6055 7.20336 32.3305 7.32766 31.9754C7.56833 31.288 7.72616 30.4621 7.81693 29.9872L7.82217 29.9598C7.86904 29.7146 8.08954 29.5416 8.33882 29.5543C8.58809 29.5671 8.78978 29.7617 8.81139 30.0104C9.06974 32.983 9.96402 35.0321 10.7791 36.3293C11.1874 36.9791 11.5774 37.4425 11.8607 37.7401C12.0024 37.889 12.1174 37.9963 12.1946 38.0646C12.2333 38.0988 12.2624 38.1232 12.2807 38.1381L12.2999 38.1535L12.3018 38.155C12.3019 38.1551 12.302 38.1552 12.3022 38.1553C12.302 38.1552 12.3018 38.155 12 38.5537C11.6982 38.9523 11.6979 38.9521 11.6977 38.9519L11.6971 38.9515L11.6958 38.9505L11.6923 38.9478L11.6819 38.9397C11.6735 38.9331 11.6621 38.924 11.6481 38.9125C11.6199 38.8895 11.5807 38.8566 11.532 38.8136C11.4346 38.7274 11.2989 38.6003 11.1365 38.4297C10.9047 38.1862 10.6183 37.854 10.3109 37.4253C10.1874 37.253 10.0605 37.0652 9.93243 36.8614C9.28894 35.8373 8.61775 34.4126 8.18976 32.5271C8.06753 32.8402 7.91765 33.1459 7.73209 33.3851C7.50686 33.6754 7.12927 33.9835 6.61754 33.8764C5.02866 33.544 3.8785 32.0758 2.93917 29.8299C2.23095 28.1366 1.60404 25.9082 1.00072 23.1578C0.990855 24.1784 1.07701 25.5031 1.37026 27.1903C2.08689 31.313 4.27303 35.5916 9.24285 38.4162L7.95186 37.0658C7.77059 36.8762 7.76667 36.5788 7.94288 36.3845C8.11909 36.1901 8.41551 36.165 8.62189 36.3269C9.24848 36.8185 9.82094 37.1718 10.3109 37.4253M11.0053 38.8127L11.8614 39.7081C12.0241 39.8784 12.046 40.139 11.914 40.334M11.0053 38.8127C11.2511 38.8974 11.455 38.9528 11.6097 38.9887C11.71 39.0119 11.7896 39.027 11.8465 39.0364C11.8749 39.0412 11.8977 39.0445 11.9145 39.0468L11.9352 39.0495L11.9422 39.0503L11.9449 39.0506L11.946 39.0507L11.9465 39.0508C11.9467 39.0508 11.9469 39.0508 12 38.5537M12.303 38.1559L12.3022 38.1553L12.303 38.1559Z" fill="white"/>
<path d="M11.5 43.5536C13.9 43.9536 16.5 43.0536 17.5 42.5536C17.5 42.5536 15.5 42.0536 14 41.5536C12.5 41.0536 11.5 40.0536 11.5 40.0536C11.5 41.0536 9.5 41.0536 9.5 41.0536C9.5 41.0536 8 41.0536 7 40.0536C7.5 41.0536 9.1 43.1536 11.5 43.5536Z" fill="#565C68"/>
<path fill-rule="evenodd" clip-rule="evenodd" d="M15.8927 42.644C15.2545 42.467 14.5024 42.2479 13.8419 42.0278C13.031 41.7575 12.3614 41.3546 11.8969 41.0228C11.8183 40.9667 11.7453 40.9124 11.6782 40.8608C11.619 40.9244 11.5545 40.9813 11.4875 41.0316C11.2231 41.2299 10.8993 41.344 10.6213 41.4135C10.3361 41.4848 10.0573 41.5191 9.85401 41.5361C9.75123 41.5446 9.66512 41.549 9.60377 41.5512C9.57304 41.5523 9.54838 41.5528 9.53078 41.5531L9.50976 41.5534L9.50342 41.5534L9.50133 41.5534L9.50025 41.5534L9.4984 41.5534L9.49626 41.5534L9.49033 41.5534L9.47203 41.5531C9.45703 41.5527 9.43647 41.5521 9.41088 41.551C9.35972 41.5486 9.28816 41.5441 9.20023 41.5353C9.05757 41.5211 8.86996 41.4954 8.6553 41.4489C8.72615 41.5198 8.7996 41.5903 8.87562 41.6601C9.59046 42.3163 10.5053 42.8807 11.5822 43.0602C13.091 43.3117 14.7049 43.0123 15.8927 42.644ZM9.5003 40.5534L9.49376 40.5533C9.48631 40.5531 9.47365 40.5528 9.45628 40.552C9.4215 40.5504 9.36806 40.5471 9.29974 40.5403C9.16259 40.5266 8.96832 40.4989 8.74625 40.4434C8.29638 40.3309 7.7666 40.1129 7.35354 39.6999C7.18014 39.5265 6.90657 39.5044 6.70763 39.6478C6.50869 39.7912 6.4431 40.0577 6.55277 40.277C6.82929 40.8301 7.3908 41.6545 8.19935 42.3968C9.00951 43.1405 10.0947 43.8261 11.4178 44.0466C13.9642 44.471 16.6763 43.5243 17.7236 43.0006C17.9107 42.9071 18.0198 42.7069 17.997 42.4989C17.9742 42.2909 17.8242 42.1191 17.6213 42.0684M17.6213 42.0684L17.5994 42.0628L17.5343 42.0464C17.4774 42.0319 17.3942 42.0106 17.2895 41.9835C17.0802 41.9292 16.7854 41.8516 16.444 41.7585C15.7596 41.5719 14.895 41.3247 14.1581 41.0791C13.4689 40.8494 12.8886 40.5023 12.4781 40.2091C12.2738 40.0632 12.1143 39.9325 12.0071 39.8397C11.9536 39.7933 11.9134 39.7565 11.8875 39.7322C11.8745 39.7201 11.8651 39.7111 11.8594 39.7056L11.8536 39.7C11.8537 39.7 11.8536 39.6999 11.8536 39.7C11.8536 39.6999 11.853 39.6993 11.8529 39.6993C11.7099 39.5568 11.4952 39.5142 11.3086 39.5915C11.1218 39.6689 11 39.8512 11 40.0534C11 40.107 10.984 40.1592 10.8875 40.2316C10.7769 40.3145 10.6007 40.3879 10.3787 40.4434C10.1638 40.4971 9.94263 40.5252 9.77096 40.5395C9.68624 40.5466 9.6161 40.5501 9.56808 40.5518C9.54412 40.5527 9.52581 40.5531 9.51411 40.5533L9.50169 40.5534L9.5003 40.5534" fill="white"/>
<path fill-rule="evenodd" clip-rule="evenodd" d="M20.8456 42.2569C26.6939 41.6037 31.5352 38.3394 33.041 34.8551C33.1505 34.6016 33.4448 34.4849 33.6983 34.5945C33.9518 34.704 34.0685 34.9983 33.9589 35.2518C32.2664 39.1683 27.0342 42.5719 20.9566 43.2508C17.9804 43.5832 15.265 43.3627 11.4809 41.7273C11.2274 41.6178 11.1107 41.3235 11.2202 41.07C11.3298 40.8165 11.6241 40.6998 11.8776 40.8094C15.4942 42.3723 18.0337 42.571 20.8456 42.2569Z" fill="#565C68"/>
<circle cx="36" cy="33.5535" r="0.5" transform="rotate(-180 36 33.5535)" fill="#565C68"/>
<circle cx="34" cy="32.5535" r="0.5" transform="rotate(-180 34 32.5535)" fill="#565C68"/>
</svg>
