<svg width="86" height="88" viewBox="0 0 86 88" fill="none" xmlns="http://www.w3.org/2000/svg">
<g style="mix-blend-mode:difference">
<circle cx="43" cy="44" r="38.9688" fill="white" fill-opacity="0.8" stroke="white"/>
<path d="M21.4629 34.6748C20.8932 34.6748 20.4521 34.8896 20.1396 35.3193C19.8271 35.7458 19.6709 36.3415 19.6709 37.1064C19.6709 38.6982 20.2682 39.4941 21.4629 39.4941C21.9642 39.4941 22.5713 39.3688 23.2842 39.1182V40.3877C22.6982 40.6318 22.0439 40.7539 21.3213 40.7539C20.2829 40.7539 19.4886 40.4398 18.9385 39.8115C18.3883 39.18 18.1133 38.2751 18.1133 37.0967C18.1133 36.3545 18.2484 35.7051 18.5186 35.1484C18.7887 34.5885 19.1761 34.1605 19.6807 33.8643C20.1885 33.5648 20.7826 33.415 21.4629 33.415C22.1562 33.415 22.8529 33.5827 23.5527 33.918L23.0645 35.1484C22.7975 35.0215 22.529 34.9108 22.2588 34.8164C21.9886 34.722 21.7233 34.6748 21.4629 34.6748Z" fill="#565C68"/>
<path d="M27.8301 40.6562L26.1113 35.0557H26.0674C26.1292 36.195 26.1602 36.9551 26.1602 37.3359V40.6562H24.8076V33.5176H26.8682L28.5576 38.9766H28.5869L30.3789 33.5176H32.4395V40.6562H31.0283V37.2773C31.0283 37.1178 31.0299 36.9339 31.0332 36.7256C31.0397 36.5173 31.0625 35.9639 31.1016 35.0654H31.0576L29.2168 40.6562H27.8301Z" fill="#565C68"/>
<path d="M40.7207 37.0771C40.7207 38.2588 40.4277 39.167 39.8418 39.8018C39.2559 40.4365 38.416 40.7539 37.3223 40.7539C36.2285 40.7539 35.3887 40.4365 34.8027 39.8018C34.2168 39.167 33.9238 38.2555 33.9238 37.0674C33.9238 35.8792 34.2168 34.9727 34.8027 34.3477C35.3919 33.7194 36.235 33.4053 37.332 33.4053C38.429 33.4053 39.2673 33.721 39.8467 34.3525C40.4294 34.984 40.7207 35.8923 40.7207 37.0771ZM35.5107 37.0771C35.5107 37.8747 35.6621 38.4753 35.9648 38.8789C36.2676 39.2826 36.7201 39.4844 37.3223 39.4844C38.5299 39.4844 39.1338 38.682 39.1338 37.0771C39.1338 35.4691 38.5332 34.665 37.332 34.665C36.7298 34.665 36.2757 34.8685 35.9697 35.2754C35.6637 35.679 35.5107 36.2796 35.5107 37.0771Z" fill="#565C68"/>
<path d="M44.9541 40.6562H43.4404V34.7773H41.502V33.5176H46.8926V34.7773H44.9541V40.6562Z" fill="#565C68"/>
<path d="M49.5049 36.877H50.0029C50.4684 36.877 50.8167 36.7858 51.0479 36.6035C51.279 36.418 51.3945 36.1494 51.3945 35.7979C51.3945 35.443 51.2969 35.181 51.1016 35.0117C50.9095 34.8424 50.6068 34.7578 50.1934 34.7578H49.5049V36.877ZM52.9229 35.7441C52.9229 36.5124 52.682 37.0999 52.2002 37.5068C51.7217 37.9137 51.0397 38.1172 50.1543 38.1172H49.5049V40.6562H47.9912V33.5176H50.2715C51.1374 33.5176 51.7949 33.7048 52.2441 34.0791C52.6966 34.4502 52.9229 35.0052 52.9229 35.7441Z" fill="#565C68"/>
<path d="M58.3818 40.6562H54.2705V33.5176H58.3818V34.7578H55.7842V36.3252H58.2012V37.5654H55.7842V39.4062H58.3818V40.6562Z" fill="#565C68"/>
<path d="M62.6299 40.6562H61.1162V34.7773H59.1777V33.5176H64.5684V34.7773H62.6299V40.6562Z" fill="#565C68"/>
<path d="M70.6963 38.4248C70.6963 39.9124 69.7132 40.6562 67.7471 40.6562H65.667V33.5176H67.1807V36.2568H67.7764C68.7074 36.2568 69.4268 36.4456 69.9346 36.8232C70.4424 37.2008 70.6963 37.7347 70.6963 38.4248ZM67.1807 39.416H67.6885C68.1995 39.416 68.5739 39.3346 68.8115 39.1719C69.0492 39.0059 69.168 38.7568 69.168 38.4248C69.168 38.096 69.0475 37.86 68.8066 37.7168C68.5658 37.5703 68.1523 37.4971 67.5664 37.4971H67.1807V39.416Z" fill="#565C68"/>
<path d="M27.1611 45.5176H29.3828C30.3952 45.5176 31.1292 45.6624 31.585 45.9521C32.0439 46.2386 32.2734 46.696 32.2734 47.3242C32.2734 47.7507 32.1725 48.1006 31.9707 48.374C31.7721 48.6475 31.5068 48.8118 31.1748 48.8672V48.916C31.6273 49.0169 31.9528 49.2057 32.1514 49.4824C32.3532 49.7591 32.4541 50.127 32.4541 50.5859C32.4541 51.237 32.2181 51.7448 31.7461 52.1094C31.2773 52.474 30.6393 52.6562 29.832 52.6562H27.1611V45.5176ZM28.6748 48.3447H29.5537C29.9639 48.3447 30.2601 48.2812 30.4424 48.1543C30.6279 48.0273 30.7207 47.8174 30.7207 47.5244C30.7207 47.251 30.6198 47.0557 30.418 46.9385C30.2194 46.818 29.9036 46.7578 29.4707 46.7578H28.6748V48.3447ZM28.6748 49.5459V51.4062H29.6611C30.0778 51.4062 30.3854 51.3265 30.584 51.167C30.7826 51.0075 30.8818 50.7633 30.8818 50.4346C30.8818 49.8421 30.4587 49.5459 29.6123 49.5459H28.6748Z" fill="#565C68"/>
<path d="M33.8799 45.5176H35.2422V48.9648L35.2227 49.8877L35.1738 50.9375H35.2031L38.499 45.5176H40.3105V52.6562H38.9629V49.2285C38.9629 48.7695 38.9922 48.0892 39.0508 47.1875H39.0117L35.7012 52.6562H33.8799V45.5176Z" fill="#565C68"/>
<path d="M41.2627 51.3965H41.8145C42.2865 50.4525 42.6592 49.5101 42.9326 48.5693C43.2061 47.6253 43.4095 46.6081 43.543 45.5176H47.7031V51.3965H48.6553V54.7363H47.1953V52.6562H42.7227V54.7363H41.2627V51.3965ZM44.7441 46.7773C44.64 47.5228 44.4658 48.3122 44.2217 49.1455C43.9808 49.9788 43.709 50.7292 43.4062 51.3965H46.1943V46.7773H44.7441Z" fill="#565C68"/>
<path d="M53.8701 52.6562H49.7588V45.5176H53.8701V46.7578H51.2725V48.3252H53.6895V49.5654H51.2725V51.4062H53.8701V52.6562Z" fill="#565C68"/>
<path d="M61.8438 49.0771C61.8438 50.2588 61.5508 51.167 60.9648 51.8018C60.3789 52.4365 59.5391 52.7539 58.4453 52.7539C57.3516 52.7539 56.5117 52.4365 55.9258 51.8018C55.3398 51.167 55.0469 50.2555 55.0469 49.0674C55.0469 47.8792 55.3398 46.9727 55.9258 46.3477C56.515 45.7194 57.3581 45.4053 58.4551 45.4053C59.5521 45.4053 60.3903 45.721 60.9697 46.3525C61.5524 46.984 61.8438 47.8923 61.8438 49.0771ZM56.6338 49.0771C56.6338 49.8747 56.7852 50.4753 57.0879 50.8789C57.3906 51.2826 57.8431 51.4844 58.4453 51.4844C59.653 51.4844 60.2568 50.682 60.2568 49.0771C60.2568 47.4691 59.6562 46.665 58.4551 46.665C57.8529 46.665 57.3988 46.8685 57.0928 47.2754C56.7868 47.679 56.6338 48.2796 56.6338 49.0771Z" fill="#565C68"/>
<rect y="42.6041" width="6.71875" height="1" fill="white"/>
<rect x="79.2812" y="42.6041" width="6.71875" height="1" fill="white"/>
<path fill-rule="evenodd" clip-rule="evenodd" d="M44.396 1V9.0625H43.396V1H44.396Z" fill="white"/>
<path fill-rule="evenodd" clip-rule="evenodd" d="M44.396 80.2812V87H43.396V80.2812H44.396Z" fill="white"/>
</g>
</svg>
